# Blender v3.2.1 OBJ File: 'FINAL_STREET_COLLECTION_SAVEGAME.blend'
# www.blender.org
mtllib street_t_crossing.mtl
o SidewalkRight.007_Cube.016
v -5.000000 0.000000 3.000000
v -5.000000 0.100000 3.000000
v -5.000000 0.000000 5.000000
v -5.000000 0.100000 5.000000
v -3.000000 0.000000 5.000000
v -3.000000 0.100000 5.000000
v -5.000000 0.000000 3.000000
v -3.000000 0.000000 5.000000
v -4.790943 0.000000 3.010956
v -4.584177 0.000000 3.043705
v -4.381966 0.000000 3.097887
v -4.186527 0.000000 3.172909
v -4.000000 0.000000 3.267949
v -3.824430 0.000000 3.381966
v -3.661739 0.000000 3.513710
v -3.513710 0.000000 3.661739
v -3.381966 0.000000 3.824430
v -3.267949 0.000000 4.000000
v -3.172909 0.000000 4.186527
v -3.097887 0.000000 4.381966
v -3.043705 0.000000 4.584177
v -3.010956 0.000000 4.790943
v -3.000000 0.100000 5.000000
v -5.000000 0.100000 3.000000
v -3.010956 0.100000 4.790943
v -3.043705 0.100000 4.584177
v -3.097887 0.100000 4.381966
v -3.172909 0.100000 4.186527
v -3.267949 0.100000 4.000000
v -3.381966 0.100000 3.824430
v -3.513710 0.100000 3.661739
v -3.661739 0.100000 3.513710
v -3.824430 0.100000 3.381966
v -4.000000 0.100000 3.267949
v -4.186527 0.100000 3.172909
v -4.381966 0.100000 3.097887
v -4.584177 0.100000 3.043705
v -4.790943 0.100000 3.010956
v 5.000000 0.000000 -3.000000
v 5.000000 0.100000 -3.000000
v -5.000000 0.000000 -3.000000
v -5.000000 0.100000 -3.000000
v 5.000000 0.000000 -5.000000
v 5.000000 0.100000 -5.000000
v -5.000000 0.000000 -5.000000
v -5.000000 0.100000 -5.000000
v -5.000000 0.000000 5.000000
v 5.000000 0.000000 5.000000
v -5.000000 0.000000 -5.000000
v 5.000000 0.000000 -5.000000
v 3.000000 0.000000 5.000000
v 3.000000 0.100000 5.000000
v 5.000000 0.000000 5.000000
v 5.000000 0.100000 5.000000
v 5.000000 0.000000 3.000000
v 5.000000 0.100000 3.000000
v 3.000000 0.000000 5.000000
v 5.000000 0.000000 3.000000
v 3.010956 0.000000 4.790943
v 3.043705 0.000000 4.584177
v 3.097887 0.000000 4.381966
v 3.172909 0.000000 4.186527
v 3.267949 0.000000 4.000000
v 3.381966 0.000000 3.824430
v 3.513710 0.000000 3.661739
v 3.661739 0.000000 3.513710
v 3.824430 0.000000 3.381966
v 4.000000 0.000000 3.267949
v 4.186526 0.000000 3.172909
v 4.381966 0.000000 3.097887
v 4.584177 0.000000 3.043705
v 4.790943 0.000000 3.010956
v 5.000000 0.100000 3.000000
v 3.000000 0.100000 5.000000
v 4.790943 0.100000 3.010956
v 4.584177 0.100000 3.043705
v 4.381966 0.100000 3.097887
v 4.186526 0.100000 3.172909
v 4.000000 0.100000 3.267949
v 3.824430 0.100000 3.381966
v 3.661739 0.100000 3.513710
v 3.513710 0.100000 3.661739
v 3.381966 0.100000 3.824430
v 3.267949 0.100000 4.000000
v 3.172909 0.100000 4.186527
v 3.097887 0.100000 4.381966
v 3.043705 0.100000 4.584177
v 3.010956 0.100000 4.790943
vt 0.375000 0.500000
vt 0.625000 0.500000
vt 0.625000 0.500000
vt 0.375000 0.500000
vt 0.375000 0.000000
vt 0.625000 0.000000
vt 0.625000 0.000000
vt 0.375000 0.000000
vt 0.000000 0.000000
vt 1.000000 0.000000
vt 1.000000 1.000000
vt 0.000000 1.000000
vt 0.375000 0.500000
vt 0.625000 0.500000
vt 0.625000 0.500000
vt 0.375000 0.500000
vt 0.375000 0.000000
vt 0.625000 0.000000
vt 0.625000 0.000000
vt 0.375000 0.000000
vt 0.651132 0.501370
vt 0.676978 0.505463
vt 0.702254 0.512236
vt 0.726684 0.521614
vt 0.750000 0.533494
vt 0.771946 0.547746
vt 0.792283 0.564214
vt 0.810786 0.582717
vt 0.827254 0.603054
vt 0.841506 0.625000
vt 0.853386 0.648316
vt 0.862764 0.672746
vt 0.869537 0.698022
vt 0.873631 0.723868
vt 0.875000 0.750000
vt 0.875000 0.750000
vt 0.625000 0.750000
vt 0.375000 0.750000
vt 0.625000 1.000000
vt 0.375000 1.000000
vt 0.375000 0.473868
vt 0.625000 0.473868
vt 0.375000 0.448022
vt 0.625000 0.448022
vt 0.375000 0.422746
vt 0.625000 0.422746
vt 0.375000 0.398316
vt 0.625000 0.398316
vt 0.375000 0.375000
vt 0.625000 0.375000
vt 0.375000 0.353054
vt 0.625000 0.353054
vt 0.375000 0.332717
vt 0.625000 0.332717
vt 0.375000 0.167283
vt 0.625000 0.167283
vt 0.375000 0.146946
vt 0.625000 0.146946
vt 0.375000 0.125000
vt 0.625000 0.125000
vt 0.375000 0.101684
vt 0.625000 0.101684
vt 0.375000 0.077254
vt 0.625000 0.077254
vt 0.375000 0.051978
vt 0.625000 0.051978
vt 0.375000 0.026132
vt 0.625000 0.026132
vt 0.125000 0.750000
vt 0.126370 0.723868
vt 0.130463 0.698022
vt 0.137236 0.672746
vt 0.146614 0.648316
vt 0.158494 0.625000
vt 0.172746 0.603054
vt 0.189214 0.582717
vt 0.207717 0.564214
vt 0.228054 0.547746
vt 0.250000 0.533494
vt 0.273316 0.521614
vt 0.297746 0.512236
vt 0.323022 0.505463
vt 0.348868 0.501370
vt 0.125000 0.750000
vt 0.375000 0.000000
vt 0.625000 0.000000
vt 0.625000 0.250000
vt 0.375000 0.250000
vt 0.625000 0.500000
vt 0.375000 0.500000
vt 0.625000 0.750000
vt 0.375000 0.750000
vt 0.625000 1.000000
vt 0.375000 1.000000
vt 0.125000 0.500000
vt 0.125000 0.750000
vt 0.875000 0.500000
vt 0.875000 0.750000
vt 0.651132 0.501370
vt 0.676978 0.505463
vt 0.702254 0.512236
vt 0.726684 0.521614
vt 0.750000 0.533494
vt 0.771946 0.547746
vt 0.792283 0.564214
vt 0.810786 0.582717
vt 0.827254 0.603054
vt 0.841506 0.625000
vt 0.853386 0.648316
vt 0.862764 0.672746
vt 0.869537 0.698022
vt 0.873631 0.723868
vt 0.875000 0.750000
vt 0.875000 0.750000
vt 0.625000 0.750000
vt 0.375000 0.750000
vt 0.625000 1.000000
vt 0.375000 1.000000
vt 0.375000 0.473868
vt 0.625000 0.473868
vt 0.375000 0.448022
vt 0.625000 0.448022
vt 0.375000 0.422746
vt 0.625000 0.422746
vt 0.375000 0.398316
vt 0.625000 0.398316
vt 0.375000 0.375000
vt 0.625000 0.375000
vt 0.375000 0.353054
vt 0.625000 0.353054
vt 0.375000 0.332717
vt 0.625000 0.332717
vt 0.375000 0.167283
vt 0.625000 0.167283
vt 0.375000 0.146946
vt 0.625000 0.146946
vt 0.375000 0.125000
vt 0.625000 0.125000
vt 0.375000 0.101684
vt 0.625000 0.101684
vt 0.375000 0.077254
vt 0.625000 0.077254
vt 0.375000 0.051978
vt 0.625000 0.051978
vt 0.375000 0.026132
vt 0.625000 0.026132
vt 0.125000 0.750000
vt 0.126370 0.723868
vt 0.130463 0.698022
vt 0.137236 0.672746
vt 0.146614 0.648316
vt 0.158494 0.625000
vt 0.172746 0.603054
vt 0.189214 0.582717
vt 0.207717 0.564214
vt 0.228054 0.547746
vt 0.250000 0.533494
vt 0.273316 0.521614
vt 0.297746 0.512236
vt 0.323022 0.505463
vt 0.348868 0.501370
vt 0.125000 0.750000
vn 0.0000 0.0000 1.0000
vn 0.0000 1.0000 0.0000
vn -1.0000 0.0000 0.0000
vn 0.9986 0.0000 -0.0523
vn 0.9877 0.0000 -0.1564
vn 0.9659 0.0000 -0.2588
vn 0.9336 0.0000 -0.3584
vn 0.8910 0.0000 -0.4540
vn 0.8387 0.0000 -0.5446
vn 0.7771 0.0000 -0.6293
vn 0.7071 0.0000 -0.7071
vn 0.6293 0.0000 -0.7771
vn 0.5446 0.0000 -0.8387
vn 0.4540 0.0000 -0.8910
vn 0.3584 0.0000 -0.9336
vn 0.2588 0.0000 -0.9659
vn 0.1564 0.0000 -0.9877
vn 0.0523 0.0000 -0.9986
vn 0.0000 -1.0000 0.0000
vn 0.0000 0.0000 -1.0000
vn 1.0000 0.0000 0.0000
vn -0.0523 0.0000 -0.9986
vn -0.1564 0.0000 -0.9877
vn -0.2588 0.0000 -0.9659
vn -0.3584 0.0000 -0.9336
vn -0.4540 0.0000 -0.8910
vn -0.5446 0.0000 -0.8387
vn -0.6293 0.0000 -0.7771
vn -0.7071 0.0000 -0.7071
vn -0.7771 0.0000 -0.6293
vn -0.8387 0.0000 -0.5446
vn -0.8910 0.0000 -0.4540
vn -0.9336 0.0000 -0.3584
vn -0.9659 0.0000 -0.2588
vn -0.9877 0.0000 -0.1564
vn -0.9986 0.0000 -0.0523
usemtl Tar
s off
f 8/1/1 23/2/1 6/3/1 5/4/1
f 1/5/1 2/6/1 24/7/1 7/8/1
f 47/9/2 48/10/2 50/11/2 49/12/2
f 58/13/1 73/14/1 56/15/1 55/16/1
f 51/17/1 52/18/1 74/19/1 57/20/1
usemtl Concrete
f 6/3/2 23/2/2 25/21/2 26/22/2 27/23/2 28/24/2 29/25/2 30/26/2 31/27/2 32/28/2 33/29/2 34/30/2 35/31/2 36/32/2 37/33/2 38/34/2 24/35/2 2/36/2 4/37/2
f 5/4/1 6/3/1 4/37/1 3/38/1
f 3/38/3 4/37/3 2/39/3 1/40/3
f 23/2/4 8/1/4 22/41/4 25/42/4
f 25/42/5 22/41/5 21/43/5 26/44/5
f 26/44/6 21/43/6 20/45/6 27/46/6
f 27/46/7 20/45/7 19/47/7 28/48/7
f 28/48/8 19/47/8 18/49/8 29/50/8
f 29/50/9 18/49/9 17/51/9 30/52/9
f 30/52/10 17/51/10 16/53/10 31/54/10
f 31/54/11 16/53/11 15/55/11 32/56/11
f 32/56/12 15/55/12 14/57/12 33/58/12
f 33/58/13 14/57/13 13/59/13 34/60/13
f 34/60/14 13/59/14 12/61/14 35/62/14
f 35/62/15 12/61/15 11/63/15 36/64/15
f 36/64/16 11/63/16 10/65/16 37/66/16
f 37/66/17 10/65/17 9/67/17 38/68/17
f 38/68/18 9/67/18 7/8/18 24/7/18
f 7/69/19 9/70/19 10/71/19 11/72/19 12/73/19 13/74/19 14/75/19 15/76/19 16/77/19 17/78/19 18/79/19 19/80/19 20/81/19 21/82/19 22/83/19 8/1/19 5/4/19 3/38/19 1/84/19
f 39/85/1 40/86/1 42/87/1 41/88/1
f 41/88/3 42/87/3 46/89/3 45/90/3
f 45/90/20 46/89/20 44/91/20 43/92/20
f 43/92/21 44/91/21 40/93/21 39/94/21
f 41/95/19 45/90/19 43/92/19 39/96/19
f 46/89/2 42/97/2 40/98/2 44/91/2
f 56/15/2 73/14/2 75/99/2 76/100/2 77/101/2 78/102/2 79/103/2 80/104/2 81/105/2 82/106/2 83/107/2 84/108/2 85/109/2 86/110/2 87/111/2 88/112/2 74/113/2 52/114/2 54/115/2
f 55/16/21 56/15/21 54/115/21 53/116/21
f 53/116/1 54/115/1 52/117/1 51/118/1
f 73/14/22 58/13/22 72/119/22 75/120/22
f 75/120/23 72/119/23 71/121/23 76/122/23
f 76/122/24 71/121/24 70/123/24 77/124/24
f 77/124/25 70/123/25 69/125/25 78/126/25
f 78/126/26 69/125/26 68/127/26 79/128/26
f 79/128/27 68/127/27 67/129/27 80/130/27
f 80/130/28 67/129/28 66/131/28 81/132/28
f 81/132/29 66/131/29 65/133/29 82/134/29
f 82/134/30 65/133/30 64/135/30 83/136/30
f 83/136/31 64/135/31 63/137/31 84/138/31
f 84/138/32 63/137/32 62/139/32 85/140/32
f 85/140/33 62/139/33 61/141/33 86/142/33
f 86/142/34 61/141/34 60/143/34 87/144/34
f 87/144/35 60/143/35 59/145/35 88/146/35
f 88/146/36 59/145/36 57/20/36 74/19/36
f 57/147/19 59/148/19 60/149/19 61/150/19 62/151/19 63/152/19 64/153/19 65/154/19 66/155/19 67/156/19 68/157/19 69/158/19 70/159/19 71/160/19 72/161/19 58/13/19 55/16/19 53/116/19 51/162/19
