# Blender v3.2.1 OBJ File: 'tree.blend'
# www.blender.org
mtllib tree.mtl
o Sphere
v 0.000000 3.578680 -2.121320
v 0.000000 2.928362 -1.148050
v -0.000000 8.700001 -0.000000
v 0.811794 8.471639 -0.811794
v 1.500000 7.821321 -1.500000
v 1.959844 6.848051 -1.959844
v 2.121320 5.700000 -2.121320
v 1.959844 4.551950 -1.959844
v 1.500000 3.578680 -1.500000
v 0.811794 2.928362 -0.811794
v 1.148050 8.471639 -0.000000
v 2.121320 7.821321 -0.000000
v 2.771638 6.848051 -0.000000
v 3.000000 5.700000 -0.000000
v 2.771638 4.551950 -0.000000
v 2.121320 3.578680 -0.000000
v 1.148050 2.928362 -0.000000
v 0.811794 8.471639 0.811793
v 1.499999 7.821321 1.499999
v 1.959844 6.848051 1.959843
v 2.121320 5.700000 2.121320
v 1.959844 4.551950 1.959843
v 1.499999 3.578680 1.499999
v 0.811794 2.928362 0.811793
v -0.000000 8.471639 1.148049
v 0.000000 7.821321 2.121319
v 0.000000 6.848051 2.771637
v 0.000000 5.700000 2.999999
v 0.000000 4.551950 2.771637
v 0.000000 3.578680 2.121319
v -0.000000 2.928362 1.148049
v -0.811794 8.471639 0.811793
v -1.499999 7.821321 1.499999
v -1.959844 6.848051 1.959843
v -2.121320 5.700000 2.121320
v -1.959844 4.551950 1.959843
v -1.499999 3.578680 1.499999
v -0.811794 2.928362 0.811793
v -1.148050 8.471639 -0.000000
v -2.121320 7.821321 -0.000000
v -2.771638 6.848051 -0.000000
v -2.999999 5.700000 -0.000000
v -2.771638 4.551950 -0.000000
v -2.121320 3.578680 -0.000000
v -1.148050 2.928362 -0.000000
v -0.811794 8.471639 -0.811794
v -1.499999 7.821321 -1.500000
v -1.959844 6.848051 -1.959844
v -2.121320 5.700000 -2.121320
v -1.959844 4.551950 -1.959844
v -1.499999 3.578680 -1.500000
v -0.811794 2.928362 -0.811794
v -0.000000 8.471639 -1.148050
v 0.000000 7.821321 -2.121320
v -0.000000 6.848051 -2.771638
v 0.000000 5.700000 -3.000000
v -0.000000 4.551950 -2.771638
v 0.000000 2.700000 -0.000000
v 0.000000 -0.200000 -0.250000
v 0.000000 2.800000 -0.250000
v 0.048773 -0.200000 -0.245196
v 0.048773 2.800000 -0.245196
v 0.095671 -0.200000 -0.230970
v 0.095671 2.800000 -0.230970
v 0.138893 -0.200000 -0.207867
v 0.138893 2.800000 -0.207867
v 0.176777 -0.200000 -0.176777
v 0.176777 2.800000 -0.176777
v 0.207867 -0.200000 -0.138893
v 0.207867 2.800000 -0.138893
v 0.230970 -0.200000 -0.095671
v 0.230970 2.800000 -0.095671
v 0.245196 -0.200000 -0.048773
v 0.245196 2.800000 -0.048773
v 0.250000 -0.200000 -0.000000
v 0.250000 2.800000 -0.000000
v 0.245196 -0.200000 0.048773
v 0.245196 2.800000 0.048773
v 0.230970 -0.200000 0.095671
v 0.230970 2.800000 0.095671
v 0.207867 -0.200000 0.138893
v 0.207867 2.800000 0.138893
v 0.176777 -0.200000 0.176777
v 0.176777 2.800000 0.176777
v 0.138893 -0.200000 0.207867
v 0.138893 2.800000 0.207867
v 0.095671 -0.200000 0.230970
v 0.095671 2.800000 0.230970
v 0.048773 -0.200000 0.245196
v 0.048773 2.800000 0.245196
v -0.000000 -0.200000 0.250000
v -0.000000 2.800000 0.250000
v -0.048773 -0.200000 0.245196
v -0.048773 2.800000 0.245196
v -0.095671 -0.200000 0.230970
v -0.095671 2.800000 0.230970
v -0.138893 -0.200000 0.207867
v -0.138893 2.800000 0.207867
v -0.176777 -0.200000 0.176777
v -0.176777 2.800000 0.176777
v -0.207868 -0.200000 0.138892
v -0.207868 2.800000 0.138892
v -0.230970 -0.200000 0.095671
v -0.230970 2.800000 0.095671
v -0.245196 -0.200000 0.048772
v -0.245196 2.800000 0.048772
v -0.250000 -0.200000 -0.000000
v -0.250000 2.800000 -0.000000
v -0.245196 -0.200000 -0.048773
v -0.245196 2.800000 -0.048773
v -0.230970 -0.200000 -0.095671
v -0.230970 2.800000 -0.095671
v -0.207867 -0.200000 -0.138893
v -0.207867 2.800000 -0.138893
v -0.176776 -0.200000 -0.176777
v -0.176776 2.800000 -0.176777
v -0.138892 -0.200000 -0.207868
v -0.138892 2.800000 -0.207868
v -0.095671 -0.200000 -0.230970
v -0.095671 2.800000 -0.230970
v -0.048772 -0.200000 -0.245196
v -0.048772 2.800000 -0.245196
vt 0.750000 0.875000
vt 0.687500 1.000000
vt 0.625000 0.875000
vt 0.687500 0.000000
vt 0.750000 0.125000
vt 0.625000 0.125000
vt 0.750000 0.250000
vt 0.750000 0.375000
vt 0.625000 0.375000
vt 0.625000 0.250000
vt 0.750000 0.500000
vt 0.750000 0.625000
vt 0.625000 0.625000
vt 0.625000 0.500000
vt 0.750000 0.750000
vt 0.625000 0.750000
vt 0.500000 0.625000
vt 0.500000 0.500000
vt 0.500000 0.875000
vt 0.500000 0.750000
vt 0.500000 0.250000
vt 0.500000 0.125000
vt 0.500000 0.375000
vt 0.562500 1.000000
vt 0.562500 0.000000
vt 0.375000 0.250000
vt 0.375000 0.125000
vt 0.375000 0.500000
vt 0.375000 0.375000
vt 0.375000 0.750000
vt 0.375000 0.625000
vt 0.437500 1.000000
vt 0.375000 0.875000
vt 0.437500 0.000000
vt 0.250000 0.750000
vt 0.250000 0.625000
vt 0.312500 1.000000
vt 0.250000 0.875000
vt 0.312500 0.000000
vt 0.250000 0.125000
vt 0.250000 0.375000
vt 0.250000 0.250000
vt 0.250000 0.500000
vt 0.187500 0.000000
vt 0.125000 0.125000
vt 0.125000 0.375000
vt 0.125000 0.250000
vt 0.125000 0.625000
vt 0.125000 0.500000
vt 0.125000 0.875000
vt 0.125000 0.750000
vt 0.187500 1.000000
vt 0.000000 0.875000
vt 0.000000 0.750000
vt 0.000000 0.250000
vt 0.000000 0.125000
vt 0.000000 0.500000
vt 0.000000 0.375000
vt 0.000000 0.625000
vt 0.062500 1.000000
vt 0.062500 0.000000
vt 1.000000 0.125000
vt 1.000000 0.250000
vt 0.875000 0.250000
vt 0.875000 0.125000
vt 1.000000 0.375000
vt 1.000000 0.500000
vt 0.875000 0.500000
vt 0.875000 0.375000
vt 1.000000 0.625000
vt 1.000000 0.750000
vt 0.875000 0.750000
vt 0.875000 0.625000
vt 1.000000 0.875000
vt 0.937500 1.000000
vt 0.875000 0.875000
vt 0.937500 0.000000
vt 0.812500 1.000000
vt 0.812500 0.000000
vt 1.000000 0.500000
vt 1.000000 1.000000
vt 0.968750 1.000000
vt 0.968750 0.500000
vt 0.937500 1.000000
vt 0.937500 0.500000
vt 0.906250 1.000000
vt 0.906250 0.500000
vt 0.875000 1.000000
vt 0.875000 0.500000
vt 0.843750 1.000000
vt 0.843750 0.500000
vt 0.812500 1.000000
vt 0.812500 0.500000
vt 0.781250 1.000000
vt 0.781250 0.500000
vt 0.750000 1.000000
vt 0.750000 0.500000
vt 0.718750 1.000000
vt 0.718750 0.500000
vt 0.687500 1.000000
vt 0.687500 0.500000
vt 0.656250 1.000000
vt 0.656250 0.500000
vt 0.625000 1.000000
vt 0.625000 0.500000
vt 0.593750 1.000000
vt 0.593750 0.500000
vt 0.562500 1.000000
vt 0.562500 0.500000
vt 0.531250 1.000000
vt 0.531250 0.500000
vt 0.500000 1.000000
vt 0.500000 0.500000
vt 0.468750 1.000000
vt 0.468750 0.500000
vt 0.437500 1.000000
vt 0.437500 0.500000
vt 0.406250 1.000000
vt 0.406250 0.500000
vt 0.375000 1.000000
vt 0.375000 0.500000
vt 0.343750 1.000000
vt 0.343750 0.500000
vt 0.312500 1.000000
vt 0.312500 0.500000
vt 0.281250 1.000000
vt 0.281250 0.500000
vt 0.250000 1.000000
vt 0.250000 0.500000
vt 0.218750 1.000000
vt 0.218750 0.500000
vt 0.187500 1.000000
vt 0.187500 0.500000
vt 0.156250 1.000000
vt 0.156250 0.500000
vt 0.125000 1.000000
vt 0.125000 0.500000
vt 0.093750 1.000000
vt 0.093750 0.500000
vt 0.062500 1.000000
vt 0.062500 0.500000
vt 0.296822 0.485388
vt 0.250000 0.490000
vt 0.203179 0.485389
vt 0.158156 0.471731
vt 0.116663 0.449553
vt 0.080295 0.419706
vt 0.050447 0.383337
vt 0.028269 0.341844
vt 0.014612 0.296822
vt 0.010000 0.250000
vt 0.014611 0.203179
vt 0.028269 0.158156
vt 0.050447 0.116663
vt 0.080294 0.080294
vt 0.116663 0.050447
vt 0.158156 0.028269
vt 0.203178 0.014612
vt 0.250000 0.010000
vt 0.296822 0.014612
vt 0.341844 0.028269
vt 0.383337 0.050447
vt 0.419706 0.080294
vt 0.449553 0.116663
vt 0.471731 0.158156
vt 0.485388 0.203178
vt 0.490000 0.250000
vt 0.485388 0.296822
vt 0.471731 0.341844
vt 0.449553 0.383337
vt 0.419706 0.419706
vt 0.383337 0.449553
vt 0.341844 0.471731
vt 0.031250 1.000000
vt 0.031250 0.500000
vt 0.000000 1.000000
vt 0.000000 0.500000
vt 0.750000 0.490000
vt 0.796822 0.485388
vt 0.841844 0.471731
vt 0.883337 0.449553
vt 0.919706 0.419706
vt 0.949553 0.383337
vt 0.971731 0.341844
vt 0.985388 0.296822
vt 0.990000 0.250000
vt 0.985388 0.203178
vt 0.971731 0.158156
vt 0.949553 0.116663
vt 0.919706 0.080294
vt 0.883337 0.050447
vt 0.841844 0.028269
vt 0.796822 0.014612
vt 0.750000 0.010000
vt 0.703178 0.014612
vt 0.658156 0.028269
vt 0.616663 0.050447
vt 0.580294 0.080294
vt 0.550447 0.116663
vt 0.528269 0.158156
vt 0.514611 0.203179
vt 0.510000 0.250000
vt 0.514612 0.296822
vt 0.528269 0.341844
vt 0.550447 0.383337
vt 0.580295 0.419706
vt 0.616663 0.449553
vt 0.658156 0.471731
vt 0.703179 0.485389
vn 0.0805 0.9776 -0.1945
vn 0.0805 -0.9776 -0.1945
vn 0.3256 -0.5253 -0.7862
vn 0.3764 0.1807 -0.9087
vn 0.2243 0.8103 -0.5414
vn 0.2243 -0.8103 -0.5414
vn 0.3764 -0.1807 -0.9087
vn 0.3256 0.5253 -0.7862
vn 0.9087 0.1807 -0.3764
vn 0.5414 0.8103 -0.2243
vn 0.5414 -0.8103 -0.2243
vn 0.9087 -0.1807 -0.3764
vn 0.7862 0.5253 -0.3256
vn 0.1945 0.9776 -0.0805
vn 0.1945 -0.9776 -0.0805
vn 0.7862 -0.5253 -0.3256
vn 0.5414 -0.8103 0.2243
vn 0.9087 -0.1807 0.3764
vn 0.7862 0.5253 0.3256
vn 0.1945 0.9776 0.0805
vn 0.1945 -0.9776 0.0805
vn 0.7862 -0.5253 0.3256
vn 0.9087 0.1807 0.3764
vn 0.5414 0.8103 0.2243
vn 0.3256 0.5253 0.7862
vn 0.0805 0.9776 0.1945
vn 0.0805 -0.9776 0.1945
vn 0.3256 -0.5253 0.7862
vn 0.3764 0.1807 0.9087
vn 0.2243 0.8103 0.5414
vn 0.2243 -0.8103 0.5414
vn 0.3764 -0.1807 0.9087
vn -0.0805 -0.9776 0.1945
vn -0.3256 -0.5253 0.7862
vn -0.3764 0.1807 0.9087
vn -0.2243 0.8103 0.5414
vn -0.2243 -0.8103 0.5414
vn -0.3764 -0.1807 0.9087
vn -0.3256 0.5253 0.7862
vn -0.0805 0.9776 0.1945
vn -0.5414 0.8103 0.2243
vn -0.5414 -0.8103 0.2243
vn -0.9087 -0.1807 0.3764
vn -0.7862 0.5253 0.3256
vn -0.1945 0.9776 0.0805
vn -0.1945 -0.9776 0.0805
vn -0.7862 -0.5253 0.3256
vn -0.9087 0.1807 0.3764
vn -0.5414 -0.8103 -0.2243
vn -0.9087 -0.1807 -0.3764
vn -0.7862 0.5253 -0.3256
vn -0.1945 0.9776 -0.0805
vn -0.1945 -0.9776 -0.0805
vn -0.7862 -0.5253 -0.3256
vn -0.9087 0.1807 -0.3764
vn -0.5414 0.8103 -0.2243
vn -0.0805 0.9776 -0.1945
vn -0.0805 -0.9776 -0.1945
vn -0.3256 -0.5253 -0.7862
vn -0.3764 0.1807 -0.9087
vn -0.2243 0.8103 -0.5414
vn -0.2243 -0.8103 -0.5414
vn -0.3764 -0.1807 -0.9087
vn -0.3256 0.5253 -0.7862
vn 0.0980 0.0000 -0.9952
vn 0.2903 0.0000 -0.9569
vn 0.4714 0.0000 -0.8819
vn 0.6344 0.0000 -0.7730
vn 0.7730 0.0000 -0.6344
vn 0.8819 0.0000 -0.4714
vn 0.9569 0.0000 -0.2903
vn 0.9952 0.0000 -0.0980
vn 0.9952 0.0000 0.0980
vn 0.9569 0.0000 0.2903
vn 0.8819 0.0000 0.4714
vn 0.7730 0.0000 0.6344
vn 0.6344 0.0000 0.7730
vn 0.4714 0.0000 0.8819
vn 0.2903 0.0000 0.9569
vn 0.0980 0.0000 0.9952
vn -0.0980 0.0000 0.9952
vn -0.2903 0.0000 0.9569
vn -0.4714 0.0000 0.8819
vn -0.6344 0.0000 0.7730
vn -0.7730 0.0000 0.6344
vn -0.8819 0.0000 0.4714
vn -0.9569 0.0000 0.2903
vn -0.9952 0.0000 0.0980
vn -0.9952 0.0000 -0.0980
vn -0.9569 0.0000 -0.2903
vn -0.8819 0.0000 -0.4714
vn -0.7730 0.0000 -0.6344
vn -0.6344 0.0000 -0.7730
vn -0.4714 0.0000 -0.8819
vn 0.0000 1.0000 -0.0000
vn -0.2903 0.0000 -0.9569
vn -0.0980 0.0000 -0.9952
vn 0.0000 -1.0000 0.0000
usemtl Material.001
s off
f 53/1/1 3/2/1 4/3/1
f 58/4/2 2/5/2 10/6/2
f 1/7/3 57/8/3 8/9/3 9/10/3
f 56/11/4 55/12/4 6/13/4 7/14/4
f 54/15/5 53/1/5 4/3/5 5/16/5
f 2/5/6 1/7/6 9/10/6 10/6/6
f 57/8/7 56/11/7 7/14/7 8/9/7
f 55/12/8 54/15/8 5/16/8 6/13/8
f 7/14/9 6/13/9 13/17/9 14/18/9
f 5/16/10 4/3/10 11/19/10 12/20/10
f 10/6/11 9/10/11 16/21/11 17/22/11
f 8/9/12 7/14/12 14/18/12 15/23/12
f 6/13/13 5/16/13 12/20/13 13/17/13
f 4/3/14 3/24/14 11/19/14
f 58/25/15 10/6/15 17/22/15
f 9/10/16 8/9/16 15/23/16 16/21/16
f 17/22/17 16/21/17 23/26/17 24/27/17
f 15/23/18 14/18/18 21/28/18 22/29/18
f 13/17/19 12/20/19 19/30/19 20/31/19
f 11/19/20 3/32/20 18/33/20
f 58/34/21 17/22/21 24/27/21
f 16/21/22 15/23/22 22/29/22 23/26/22
f 14/18/23 13/17/23 20/31/23 21/28/23
f 12/20/24 11/19/24 18/33/24 19/30/24
f 20/31/25 19/30/25 26/35/25 27/36/25
f 18/33/26 3/37/26 25/38/26
f 58/39/27 24/27/27 31/40/27
f 23/26/28 22/29/28 29/41/28 30/42/28
f 21/28/29 20/31/29 27/36/29 28/43/29
f 19/30/30 18/33/30 25/38/30 26/35/30
f 24/27/31 23/26/31 30/42/31 31/40/31
f 22/29/32 21/28/32 28/43/32 29/41/32
f 58/44/33 31/40/33 38/45/33
f 30/42/34 29/41/34 36/46/34 37/47/34
f 28/43/35 27/36/35 34/48/35 35/49/35
f 26/35/36 25/38/36 32/50/36 33/51/36
f 31/40/37 30/42/37 37/47/37 38/45/37
f 29/41/38 28/43/38 35/49/38 36/46/38
f 27/36/39 26/35/39 33/51/39 34/48/39
f 25/38/40 3/52/40 32/50/40
f 33/51/41 32/50/41 39/53/41 40/54/41
f 38/45/42 37/47/42 44/55/42 45/56/42
f 36/46/43 35/49/43 42/57/43 43/58/43
f 34/48/44 33/51/44 40/54/44 41/59/44
f 32/50/45 3/60/45 39/53/45
f 58/61/46 38/45/46 45/56/46
f 37/47/47 36/46/47 43/58/47 44/55/47
f 35/49/48 34/48/48 41/59/48 42/57/48
f 45/62/49 44/63/49 51/64/49 52/65/49
f 43/66/50 42/67/50 49/68/50 50/69/50
f 41/70/51 40/71/51 47/72/51 48/73/51
f 39/74/52 3/75/52 46/76/52
f 58/77/53 45/62/53 52/65/53
f 44/63/54 43/66/54 50/69/54 51/64/54
f 42/67/55 41/70/55 48/73/55 49/68/55
f 40/71/56 39/74/56 46/76/56 47/72/56
f 46/76/57 3/78/57 53/1/57
f 58/79/58 52/65/58 2/5/58
f 51/64/59 50/69/59 57/8/59 1/7/59
f 49/68/60 48/73/60 55/12/60 56/11/60
f 47/72/61 46/76/61 53/1/61 54/15/61
f 52/65/62 51/64/62 1/7/62 2/5/62
f 50/69/63 49/68/63 56/11/63 57/8/63
f 48/73/64 47/72/64 54/15/64 55/12/64
usemtl Material.002
f 59/80/65 60/81/65 62/82/65 61/83/65
f 61/83/66 62/82/66 64/84/66 63/85/66
f 63/85/67 64/84/67 66/86/67 65/87/67
f 65/87/68 66/86/68 68/88/68 67/89/68
f 67/89/69 68/88/69 70/90/69 69/91/69
f 69/91/70 70/90/70 72/92/70 71/93/70
f 71/93/71 72/92/71 74/94/71 73/95/71
f 73/95/72 74/94/72 76/96/72 75/97/72
f 75/97/73 76/96/73 78/98/73 77/99/73
f 77/99/74 78/98/74 80/100/74 79/101/74
f 79/101/75 80/100/75 82/102/75 81/103/75
f 81/103/76 82/102/76 84/104/76 83/105/76
f 83/105/77 84/104/77 86/106/77 85/107/77
f 85/107/78 86/106/78 88/108/78 87/109/78
f 87/109/79 88/108/79 90/110/79 89/111/79
f 89/111/80 90/110/80 92/112/80 91/113/80
f 91/113/81 92/112/81 94/114/81 93/115/81
f 93/115/82 94/114/82 96/116/82 95/117/82
f 95/117/83 96/116/83 98/118/83 97/119/83
f 97/119/84 98/118/84 100/120/84 99/121/84
f 99/121/85 100/120/85 102/122/85 101/123/85
f 101/123/86 102/122/86 104/124/86 103/125/86
f 103/125/87 104/124/87 106/126/87 105/127/87
f 105/127/88 106/126/88 108/128/88 107/129/88
f 107/129/89 108/128/89 110/130/89 109/131/89
f 109/131/90 110/130/90 112/132/90 111/133/90
f 111/133/91 112/132/91 114/134/91 113/135/91
f 113/135/92 114/134/92 116/136/92 115/137/92
f 115/137/93 116/136/93 118/138/93 117/139/93
f 117/139/94 118/138/94 120/140/94 119/141/94
f 62/142/95 60/143/95 122/144/95 120/145/95 118/146/95 116/147/95 114/148/95 112/149/95 110/150/95 108/151/95 106/152/95 104/153/95 102/154/95 100/155/95 98/156/95 96/157/95 94/158/95 92/159/95 90/160/95 88/161/95 86/162/95 84/163/95 82/164/95 80/165/95 78/166/95 76/167/95 74/168/95 72/169/95 70/170/95 68/171/95 66/172/95 64/173/95
f 119/141/96 120/140/96 122/174/96 121/175/96
f 121/175/97 122/174/97 60/176/97 59/177/97
f 59/178/98 61/179/98 63/180/98 65/181/98 67/182/98 69/183/98 71/184/98 73/185/98 75/186/98 77/187/98 79/188/98 81/189/98 83/190/98 85/191/98 87/192/98 89/193/98 91/194/98 93/195/98 95/196/98 97/197/98 99/198/98 101/199/98 103/200/98 105/201/98 107/202/98 109/203/98 111/204/98 113/205/98 115/206/98 117/207/98 119/208/98 121/209/98
